<?xml version="1.0" encoding="UTF-8" standalone="no"?>
<svg width="17px" height="27px" viewBox="0 0 17 27" version="1.1" xmlns="http://www.w3.org/2000/svg" xmlns:xlink="http://www.w3.org/1999/xlink">
    <!-- Generator: Sketch 39.1 (31720) - http://www.bohemiancoding.com/sketch -->
    <title>Shape</title>
    <desc>Created with Sketch.</desc>
    <defs></defs>
    <g id="Page-1" stroke="none" stroke-width="1" fill="none" fill-rule="evenodd">
        <path d="M13,7 L13,4.5 C13,2.0147095 10.9852905,0 8.5,0 C6.0147095,0 4,2.0147095 4,4.5 L4,7 L0,7 L0,27 L17,27 L17,7 L13,7 L13,7 Z M5,4.5 C5,2.5670166 6.5670166,1 8.5,1 C10.4329834,1 12,2.5670166 12,4.5 L12,7 L5,7 L5,4.5 L5,4.5 Z M16,26 L1,26 L1,8 L4,8 L4,12 L5,12 L5,8 L12,8 L12,12 L13,12 L13,8 L16,8 L16,26 L16,26 Z" id="Shape" fill="#000000"></path>
    </g>
</svg>