<?xml version="1.0" encoding="UTF-8" standalone="no"?>
<svg width="50px" height="44px" viewBox="0 0 50 44" version="1.1" xmlns="http://www.w3.org/2000/svg" xmlns:xlink="http://www.w3.org/1999/xlink">
    <!-- Generator: Sketch 39.1 (31720) - http://www.bohemiancoding.com/sketch -->
    <title>Group</title>
    <desc>Created with Sketch.</desc>
    <defs></defs>
    <g id="Page-1" stroke="none" stroke-width="1" fill="none" fill-rule="evenodd">
        <g id="Group" fill="#1D1D1B">
            <polygon id="Shape" points="29.2929688 11.7070312 25 7.4140625 20.7070312 11.7070312 19.2929688 10.2929688 25 4.5859375 30.7070312 10.2929688"></polygon>
            <rect id="Rectangle-path" x="24" y="6" width="2" height="20"></rect>
            <path d="M25.0151367,43.4003906 L3.8076172,22.1923828 C-1.2607422,17.1240234 -1.2607422,8.8759766 3.8076172,3.8076172 C6.2631836,1.3515625 9.527832,0 13,0 C16.472168,0 19.7368164,1.3515625 22.1923828,3.8076172 L20.7783203,5.2216797 C16.4892578,0.9326172 9.5107422,0.9326172 5.2216797,5.2216797 C0.9331055,9.5107422 0.9331055,16.4892578 5.2216797,20.7783203 L25.0141602,40.5703125 L44.7778321,20.7783203 C49.0668946,16.4892578 49.0668946,9.5107422 44.7783204,5.2216797 C40.4882813,0.9316406 33.5107423,0.9335938 29.2216798,5.2216797 L27.8076173,3.8076172 C30.2631836,1.3515625 33.527832,0 37,0 C40.472168,0 43.7368164,1.3515625 46.1923828,3.8076172 C51.2607422,8.8759766 51.2607422,17.1240234 46.1923828,22.1923828 L25.0151367,43.4003906 L25.0151367,43.4003906 Z" id="Shape"></path>
        </g>
    </g>
</svg>