<svg xmlns="http://www.w3.org/2000/svg" style="display: none;">
  
    <symbol id="icon-cart" viewBox="0 0 512 512">
      <path d="m341 133l0-48c0-47-38-85-85-85-47 0-85 38-85 85l0 48-76 0 0 379 322 0 0-379z m-151-48c0-36 29-66 66-66 37 0 66 30 66 66l0 48-132 0z m208 408l-284 0 0-341 57 0 0 76 19 0 0-76 132 0 0 76 19 0 0-76 57 0z"/>
    </symbol>
  
    <symbol id="icon-close" viewBox="0 0 512 512">
      <path d="m493 41l-22-22-215 216-215-216-22 22 216 215-216 215 22 22 215-216 215 216 22-22-216-215z"/>
    </symbol>
  
    <symbol id="icon-email" viewBox="0 0 512 512">
      <path d="m0 67l0 378 512 0 0-378z m464 27l-208 172-208-172z m-437 324l0-306 229 188 229-188 0 306z"/>
    </symbol>
  
    <symbol id="icon-healthy" viewBox="0 0 512 512">
      <path d="m300 151l-44-44-44 44-14-15 58-58 58 58z m-54-59l20 0 0 205-20 0z m10 383l-217-217c-52-52-52-136 0-188 25-25 59-39 94-39 36 0 69 14 94 39l-14 14c-44-44-116-44-160 0-43 44-43 116 0 159l203 203 203-203c43-43 43-115 0-159-44-44-116-44-160 0l-14-14c25-25 58-39 94-39 35 0 69 14 94 39 52 52 52 136 0 188z"/>
    </symbol>
  
    <symbol id="icon-local" viewBox="0 0 512 512">
      <path d="m256 448l-65-64 16-17 49 49 50-48 16 17z m-250 41l500 0 0 23-500 0z m239-284l22 0 0 227-22 0z m102 155l-16-16 40-41c64-63 64-167 0-231-30-31-71-48-115-48-44 0-85 17-115 48-64 64-64 168 0 231l40 41-16 16-41-41c-72-72-72-190 0-263 36-35 82-54 132-54 50 0 96 19 132 54 72 73 72 191 0 263z"/>
    </symbol>
  
    <symbol id="icon-natural" viewBox="0 0 512 512">
      <path d="m256 97l-66-78 18-15 48 58 49-57 18 15z m-11-29l22 0 0 376-22 0z m-239 421l500 0 0 23-500 0z"/>
    </symbol>
  
    <symbol id="icon-recyclable" viewBox="0 0 512 512">
      <path d="m297 500l-54-54 54-54 13 13-41 41 41 40z m87-250l-74-20 5-18 55 15 15-56 18 5z m-234 53l-15-56-55 15-5-18 74-20 19 74z m68 152l-217 0 128-220 16 10-111 191 184 0z m293 0l-255 0 0-19 222 0-95-164 17-10z m-143-210l-112-194-93 161-16-9 109-190 128 222z"/>
    </symbol>
  
    <symbol id="icon-reusable" viewBox="0 0 512 512">
      <path d="m211 505l-13-14 45-37-37-44 14-12 49 58z m81-391l-49-58 58-49 13 14-45 37 37 44z m4 347l-4-19c89-17 154-95 154-186 0-105-85-190-190-190l0-19c115 0 209 94 209 209 0 100-71 186-169 205z m-40 4c-115 0-209-94-209-209 0-100 71-186 169-205l4 19c-89 17-154 95-154 186 0 105 85 190 190 190z"/>
    </symbol>
  
    <symbol id="icon-sustainable" viewBox="0 0 512 512">
      <path d="m6 489l500 0 0 23-500 0z m299-162l-49-49-49 49-16-16 65-65 65 65z m-60-65l22 0 0 193-22 0z m60-174l-49-49-49 49-16-16 65-65 65 65z m-60-65l22 0 0 193-22 0z"/>
    </symbol>
  
    <symbol id="icon-trash" viewBox="0 0 512 512">
      <path d="m320 55l0-55-128 0 0 55-110 0 0 73 19 0 0 384 310 0 0-384 19 0 0-73z m-110-37l92 0 0 37-92 0z m183 476l-274 0 0-366 73 0 0 293 18 0 0-293 92 0 0 293 18 0 0-293 73 0z m18-384l-310 0 0-37 310 0z"/>
    </symbol>
  
    <symbol id="icon-left" viewBox="0 0 512 512">
      <path d="m132 246l-10 10 238 238 20-20-228-228 0 20 228-227-20-21z"/>
    </symbol>
  
    <symbol id="icon-play" viewBox="0 0 512 512">
      <path d="m507 256c0-139-112-251-251-251-139 0-251 112-251 251 0 139 112 251 251 251 139 0 251-112 251-251z m-492 0c0-133 108-241 241-241 133 0 241 108 241 241 0 133-108 241-241 241-133 0-241-108-241-241z m318 4l5-4-5-4-109-79-7-5 0 176 7-5z m-107 75l0-158-7 4 108 79 0-8-108 79z"/>
    </symbol>
  
    <symbol id="icon-right" viewBox="0 0 512 512">
      <path d="m380 266l10-10-238-238-20 21 228 227 0-20-228 228 20 20z"/>
    </symbol>
  
    <symbol id="icon-facebook" viewBox="0 0 512 512">
      <path d="m384 3l0 76-45 0c-17 0-28 3-33 10-6 7-9 17-9 31l0 54 84 0-11 85-73 0 0 216-87 0 0-216-73 0 0-85 73 0 0-62c0-36 10-63 29-83 20-19 47-29 80-29 28 0 49 1 65 3z"/>
    </symbol>
  
    <symbol id="icon-linkedin" viewBox="0 0 512 512">
      <path d="m136 179l0 283-94 0 0-283z m6-88c0 14-4 26-14 35-10 9-23 14-39 14l0 0c-16 0-29-5-38-14-10-9-14-21-14-35 0-14 4-26 14-35 10-9 23-14 39-14 16 0 28 5 38 14 9 9 14 21 14 35z m333 208l0 163-94 0 0-152c0-20-3-35-11-47-8-11-20-17-36-17-12 0-22 4-30 10-9 7-15 15-19 25-2 5-3 13-3 23l0 158-94 0c1-76 1-138 1-185 0-47 0-76 0-85l-1-13 94 0 0 41 0 0c4-6 7-12 11-16 4-5 10-10 17-15 6-5 15-10 24-13 10-3 21-4 33-4 33 0 59 11 79 32 20 22 29 54 29 95z"/>
    </symbol>
  
    <symbol id="icon-instagram" viewBox="0 0 512 512">
      <path d="m152 511c-30-1-59-7-85-23-33-20-54-51-61-90-4-23-5-47-6-71 0-50 0-101 1-152 0-27 1-54 10-79 17-50 52-80 103-90 23-4 47-5 70-6 51 0 102 0 153 1 27 0 53 1 79 10 50 17 80 52 90 103 4 23 5 47 6 71 0 50 0 101-1 152 0 27-1 54-10 79-17 50-52 80-103 90-23 4-47 5-70 6-24 1-141 0-176-1m314-259c0-20 0-41 0-61-1-19-2-39-4-58-4-43-30-73-72-81-23-4-47-5-70-5-43-1-85-1-128 0-22 0-44 1-66 4-37 6-62 27-72 64-4 11-6 24-6 36-1 46-2 93-2 139 1 30 1 59 4 89 4 43 30 73 72 81 23 4 47 5 70 5 43 1 85 1 128 1 20-1 39-2 59-4 18-2 35-7 50-19 24-19 33-45 34-74 2-39 3-117 3-117m-210 135c-73 0-131-58-131-132 0-73 59-131 133-130 72 0 130 59 129 133 0 71-59 129-131 129m0-46c47 0 85-38 85-85 0-47-38-85-85-85-47 0-85 38-85 85 0 47 38 85 85 85m137-252c17 0 31 13 30 31 0 17-14 31-31 30-17 0-31-14-30-31 0-17 14-30 31-30"/>
    </symbol>
  
    <symbol id="icon-reduced" viewBox="0 0 512 512">
      <path d="m95 446l322 0 0 19-322 0z m351-351l19 0 0 322-19 0z m-351-48l322 0 0 19-322 0z m-48 48l19 0 0 322-19 0z m250 272l-41-41-41 41-13-13 54-55 54 55z m-50-54l18 0 0 152-18 0z m9-100l-54-55 13-13 41 41 41-41 13 13z m-9-166l18 0 0 152-18 0z m107 263l-55-54 55-54 13 13-41 41 41 41z m-41-63l152 0 0 18-152 0z m-155 63l-13-13 41-41-41-41 13-13 55 54z m-111-63l152 0 0 18-152 0z"/>
    </symbol>
  
</svg>
