<?xml version="1.0" encoding="UTF-8" standalone="no"?>
<svg width="74px" height="74px" viewBox="0 0 74 74" version="1.1" xmlns="http://www.w3.org/2000/svg" xmlns:xlink="http://www.w3.org/1999/xlink">
    <!-- Generator: Sketch 39.1 (31720) - http://www.bohemiancoding.com/sketch -->
    <title>Page 1</title>
    <desc>Created with Sketch.</desc>
    <defs></defs>
    <g id="Page-1" stroke="none" stroke-width="1" fill="none" fill-rule="evenodd">
        <g fill="#1D1C1B">
            <g id="Group-3" transform="translate(0.000000, -0.000200)">
                <path d="M21.9828,73.8 C17.6698,73.676 13.4898,72.897 9.7468,70.599 C4.8428,67.588 1.8478,63.161 0.8928,57.54 C0.3218,54.177 0.1188,50.725 0.0668,47.308 C-0.0442,39.987 -0.0002,32.663 0.0788,25.341 C0.1208,21.457 0.2498,17.558 1.5438,13.824 C4.0258,6.665 9.0648,2.32 16.4258,0.905 C19.7678,0.263 23.2378,0.12 26.6548,0.068 C34.0018,-0.044 41.3528,-0.001 48.7018,0.079 C52.5588,0.121 56.4308,0.251 60.1398,1.532 C67.3318,4.015 71.6988,9.064 73.1038,16.465 C73.7388,19.809 73.8838,23.278 73.9358,26.695 C74.0478,34.015 74.0038,41.34 73.9248,48.661 C73.8828,52.545 73.7548,56.444 72.4598,60.179 C69.9788,67.338 64.9398,71.685 57.5778,73.099 C54.2358,73.742 50.7678,73.81 47.3488,73.944 C43.8948,74.08 26.9778,73.943 21.9828,73.8 M67.3028,36.401 C67.3028,33.482 67.3628,30.562 67.2858,27.645 C67.2118,24.84 67.1048,22.028 66.8208,19.238 C66.1858,12.984 62.4628,8.671 56.2998,7.505 C53.0098,6.882 49.5928,6.796 46.2278,6.734 C40.0688,6.619 33.9048,6.633 27.7448,6.729 C24.5658,6.778 21.3558,6.89 18.2228,7.377 C12.8728,8.207 9.2188,11.275 7.7408,16.581 C7.2678,18.281 6.9908,20.084 6.9488,21.847 C6.7898,28.544 6.6908,35.245 6.7148,41.944 C6.7298,46.207 6.8278,50.484 7.1978,54.728 C7.7448,61.007 11.5008,65.305 17.6638,66.488 C20.9778,67.124 24.4238,67.205 27.8148,67.269 C33.9478,67.386 40.0838,67.35 46.2178,67.282 C49.0758,67.25 51.9418,67.094 54.7868,66.813 C57.4228,66.554 59.8898,65.691 62.0088,64.007 C65.4448,61.275 66.7718,57.509 66.9738,53.332 C67.2468,47.695 67.3528,36.402 67.3028,36.401" id="Fill-1"></path>
            </g>
            <path d="M36.9436,56.0009 C26.3936,55.9969 17.9996,47.5159 18.0036,36.8629 C18.0086,26.3659 26.5406,17.9929 37.2216,18.0049 C47.6466,18.0159 56.0106,26.5759 55.9996,37.2219 C55.9876,47.5869 47.4466,56.0049 36.9436,56.0009 M37.0176,49.3289 C43.7836,49.3149 49.3396,43.7429 49.3276,36.9859 C49.3146,30.2209 43.7346,24.6559 36.9856,24.6759 C30.2116,24.6969 24.6636,30.2589 24.6756,37.0179 C24.6876,43.7799 30.2646,49.3429 37.0176,49.3289" id="Fill-4"></path>
            <path d="M56.8289,12.8165 C59.3249,12.8375 61.2169,14.8065 61.1879,17.3505 C61.1599,19.7745 59.1189,21.7705 56.7119,21.7275 C54.2419,21.6845 52.2289,19.6285 52.2759,17.1975 C52.3249,14.7195 54.3239,12.7945 56.8289,12.8165" id="Fill-6"></path>
        </g>
    </g>
</svg>