<?xml version="1.0" encoding="UTF-8" standalone="no"?>
<svg width="44px" height="45px" viewBox="0 0 44 45" version="1.1" xmlns="http://www.w3.org/2000/svg" xmlns:xlink="http://www.w3.org/1999/xlink">
    <!-- Generator: Sketch 39.1 (31720) - http://www.bohemiancoding.com/sketch -->
    <title>Group</title>
    <desc>Created with Sketch.</desc>
    <defs></defs>
    <g id="Page-1" stroke="none" stroke-width="1" fill="none" fill-rule="evenodd">
        <g id="Group" fill="#1D1D1B">
            <polygon id="Shape" points="21.987793 39.4023438 16.2929688 33.7070312 17.7070312 32.2929688 22.012207 36.5976562 26.394043 32.3681641 27.7827148 33.8076172"></polygon>
            <rect id="Rectangle-path" x="0" y="43" width="44" height="2"></rect>
            <rect id="Rectangle-path" x="21" y="18" width="2" height="20"></rect>
            <path d="M29.980957,31.6464844 L28.5668945,30.2324219 L32.149414,26.6494141 C37.7456054,21.0527344 37.7456054,11.9472657 32.149414,6.350586 C29.4384765,3.6396485 25.8339843,2.1464844 21.9999999,2.1464844 C18.1660155,2.1464844 14.5615233,3.6396485 11.8505858,6.350586 C6.2543944,11.9472657 6.2543944,21.0527344 11.8505858,26.6494141 L15.4331053,30.2324219 L14.0190428,31.6464844 L10.4365233,28.0634766 C4.0600585,21.6875 4.0600585,11.3125 10.4365233,4.9365235 C13.5249022,1.8476563 17.6318358,0.1464844 21.9999999,0.1464844 C26.368164,0.1464844 30.4750976,1.8476563 33.5634765,4.9365235 C39.9399413,11.3125001 39.9399413,21.6875001 33.5634765,28.0634766 L29.980957,31.6464844 L29.980957,31.6464844 Z" id="Shape"></path>
        </g>
    </g>
</svg>