<?xml version="1.0" encoding="UTF-8" standalone="no"?>
<svg width="54px" height="52px" viewBox="0 0 54 52" version="1.1" xmlns="http://www.w3.org/2000/svg" xmlns:xlink="http://www.w3.org/1999/xlink">
    <!-- Generator: Sketch 39.1 (31720) - http://www.bohemiancoding.com/sketch -->
    <title>Group</title>
    <desc>Created with Sketch.</desc>
    <defs></defs>
    <g id="Page-1" stroke="none" stroke-width="1" fill="none" fill-rule="evenodd">
        <g id="Group" fill="#1D1D1B">
            <polygon id="Shape" points="31.2929688 51.7070312 25.5859375 46 31.2929688 40.2929688 32.7070312 41.7070312 28.4140625 46 32.7070312 50.2929688"></polygon>
            <polygon id="Shape" points="40.4570312 25.3896484 32.6611328 23.3007812 33.1787109 21.3691406 39.0429688 22.9404297 40.6142578 17.0761719 42.5458984 17.59375"></polygon>
            <polygon id="Shape" points="15.8222656 30.9667969 14.2509766 25.1015625 8.3857422 26.6738281 7.8681641 24.7421875 15.6650391 22.6523438 17.7539062 30.4492188"></polygon>
            <polygon id="Shape" points="23 47 0.0917969 47 13.5585938 23.7910156 15.2890625 24.7949219 3.5644531 45 23 45"></polygon>
            <polygon id="Shape" points="53.9042969 47 27 47 27 45 50.4394531 45 40.4326172 27.6679688 42.1650391 26.6679688"></polygon>
            <polygon id="Shape" points="38.7744141 24.796875 27 4.4013672 17.1992188 21.3779297 15.4667969 20.3779297 27 0.4013672 40.5068359 23.796875"></polygon>
        </g>
    </g>
</svg>