<?xml version="1.0" encoding="UTF-8" standalone="no"?>
<svg width="54px" height="54px" viewBox="0 0 54 54" version="1.1" xmlns="http://www.w3.org/2000/svg" xmlns:xlink="http://www.w3.org/1999/xlink">
    <!-- Generator: Sketch 39.1 (31720) - http://www.bohemiancoding.com/sketch -->
    <title>Group</title>
    <desc>Created with Sketch.</desc>
    <defs></defs>
    <g id="Page-1" stroke="none" stroke-width="1" fill="none" fill-rule="evenodd">
        <g id="Group" transform="translate(5.000000, 5.000000)" fill="#1D1D1B">
            <rect id="Rectangle-path" x="5" y="42" width="34" height="2"></rect>
            <rect id="Rectangle-path" x="42" y="5" width="2" height="34"></rect>
            <rect id="Rectangle-path" x="5" y="0" width="34" height="2"></rect>
            <rect id="Rectangle-path" x="0" y="5" width="2" height="34"></rect>
            <polygon id="Shape" points="26.2929688 33.7070312 22 29.4140625 17.7070312 33.7070312 16.2929688 32.2929688 22 26.5859375 27.7070312 32.2929688"></polygon>
            <rect id="Rectangle-path" x="21" y="28" width="2" height="16"></rect>
            <polygon id="Shape" points="22 17.4140625 16.2929688 11.7070312 17.7070312 10.2929688 22 14.5859375 26.2929688 10.2929688 27.7070312 11.7070312"></polygon>
            <rect id="Rectangle-path" x="21" y="0" width="2" height="16"></rect>
            <polygon id="Shape" points="32.2929688 27.7070312 26.5859375 22 32.2929688 16.2929688 33.7070312 17.7070312 29.4140625 22 33.7070312 26.2929688"></polygon>
            <rect id="Rectangle-path" x="28" y="21" width="16" height="2"></rect>
            <polygon id="Shape" points="11.7070312 27.7070312 10.2929688 26.2929688 14.5859375 22 10.2929688 17.7070312 11.7070312 16.2929688 17.4140625 22"></polygon>
            <rect id="Rectangle-path" x="0" y="21" width="16" height="2"></rect>
        </g>
    </g>
</svg>