<?xml version="1.0" encoding="UTF-8" standalone="no"?>
<svg width="44px" height="54px" viewBox="0 0 44 54" version="1.1" xmlns="http://www.w3.org/2000/svg" xmlns:xlink="http://www.w3.org/1999/xlink">
    <!-- Generator: Sketch 39.1 (31720) - http://www.bohemiancoding.com/sketch -->
    <title>Group</title>
    <desc>Created with Sketch.</desc>
    <defs></defs>
    <g id="Page-1" stroke="none" stroke-width="1" fill="none" fill-rule="evenodd">
        <g id="Group" fill="#1D1D1B">
            <polygon id="Shape" points="17.2041016 53.2910156 15.9248047 51.7539062 20.5917969 47.8710938 16.7089844 43.2041016 18.2460938 41.9248047 23.4082031 48.1289062"></polygon>
            <polygon id="Shape" points="25.7539062 12.0751953 20.5917969 5.8710938 26.7958984 0.7089844 28.0751953 2.2460938 23.4082031 6.1289062 27.2910156 10.7958984"></polygon>
            <path d="M26.1894531,48.6005859 L25.8105469,46.6376953 C35.1914062,44.8291016 42,36.5703125 42,27 C42,15.9716797 33.0283203,7 22,7 L22,5 C34.1308594,5 44,14.8691406 44,27 C44,37.5263672 36.5097656,46.6113281 26.1894531,48.6005859 L26.1894531,48.6005859 Z" id="Shape"></path>
            <path d="M22,49 C9.8691406,49 0,39.1308594 0,27 C0,16.4736328 7.4912109,7.3886719 17.8115234,5.3994141 L18.1904296,7.3623047 C8.8085938,9.1708984 2,17.4296875 2,27 C2,38.0283203 10.9716797,47 22,47 L22,49 L22,49 Z" id="Shape"></path>
        </g>
    </g>
</svg>