<?xml version="1.0" encoding="UTF-8" standalone="no"?>
<svg width="19px" height="28px" viewBox="0 0 19 28" version="1.1" xmlns="http://www.w3.org/2000/svg" xmlns:xlink="http://www.w3.org/1999/xlink">
    <!-- Generator: Sketch 39.1 (31720) - http://www.bohemiancoding.com/sketch -->
    <title>Shape</title>
    <desc>Created with Sketch.</desc>
    <defs></defs>
    <g id="Page-1" stroke="none" stroke-width="1" fill="none" fill-rule="evenodd">
        <path d="M13,3 L13,1 L13,0 L6,0 L6,3 L0,3 L0,7 L1,7 L1,28 L18,28 L18,7 L19,7 L19,3 L13,3 L13,3 Z M7,1 L12,1 L12,3 L7,3 L7,1 L7,1 Z M17,27 L2,27 L2,7 L6,7 L6,23 L7,23 L7,7 L12,7 L12,23 L13,23 L13,7 L17,7 L17,27 L17,27 Z M18,6 L1,6 L1,4 L18,4 L18,6 L18,6 Z" id="Shape" fill="#000000"></path>
    </g>
</svg>